<?xml version="1.0" standalone="no"?>
<!DOCTYPE svg PUBLIC "-//W3C//DTD SVG 20010904//EN"
 "http://www.w3.org/TR/2001/REC-SVG-20010904/DTD/svg10.dtd">
<svg version="1.0" xmlns="http://www.w3.org/2000/svg"
 width="900.000000pt" height="315.000000pt" viewBox="0 0 900.000000 315.000000"
 preserveAspectRatio="xMidYMid meet">
<metadata>
Created by potrace 1.10, written by Peter Selinger 2001-2011
</metadata>
<g transform="translate(0.000000,315.000000) scale(0.100000,-0.100000)"
fill="#000000" stroke="none">
<path d="M5595 2630 c-88 -15 -149 -30 -159 -40 -6 -6 -22 -10 -37 -10 -15 0
-32 -6 -38 -14 -6 -7 -29 -16 -51 -20 -22 -3 -40 -11 -40 -16 0 -6 -11 -10
-24 -10 -13 0 -29 -7 -36 -15 -7 -8 -19 -15 -28 -15 -8 0 -23 -6 -31 -14 -24
-21 -132 -76 -148 -76 -9 0 -32 -13 -52 -29 -20 -15 -46 -31 -58 -35 -13 -4
-23 -12 -23 -17 0 -5 -8 -9 -18 -9 -10 0 -27 -7 -38 -15 -10 -8 -31 -15 -45
-15 -14 0 -34 -7 -45 -15 -10 -8 -31 -15 -45 -15 -14 0 -34 -7 -45 -15 -10 -8
-34 -15 -51 -15 -18 0 -51 -7 -73 -16 -24 -10 -55 -14 -77 -11 -51 7 -125 28
-141 41 -33 26 -57 59 -63 84 -13 53 -9 137 6 159 22 31 32 113 15 123 -8 5
-35 -4 -69 -21 -69 -35 -221 -86 -293 -99 -29 -6 -84 -17 -123 -26 -38 -9 -97
-20 -130 -26 -33 -5 -68 -14 -78 -19 -10 -5 -88 -19 -175 -30 -86 -11 -184
-24 -217 -30 -33 -5 -136 -14 -230 -19 -93 -5 -222 -14 -285 -20 -333 -31
-453 -40 -527 -40 -45 0 -117 -7 -160 -15 -43 -8 -100 -15 -128 -15 -27 0 -68
-5 -90 -10 -22 -6 -71 -15 -110 -20 -85 -11 -199 -39 -315 -76 -25 -8 -58 -14
-75 -14 -16 -1 -39 -7 -49 -15 -11 -8 -28 -15 -37 -15 -10 0 -30 -6 -46 -14
-15 -8 -48 -22 -73 -31 -201 -77 -367 -200 -551 -410 -44 -49 -79 -95 -79
-101 0 -7 -7 -14 -15 -18 -8 -3 -15 -10 -15 -16 0 -7 -19 -37 -42 -68 -24 -31
-52 -75 -63 -97 -10 -22 -31 -56 -46 -75 -14 -19 -34 -51 -45 -70 -10 -19 -31
-51 -47 -71 -15 -20 -27 -40 -27 -44 0 -3 -20 -33 -45 -65 -65 -84 -62 -94 24
-87 39 3 78 10 88 16 10 5 36 42 56 83 21 40 46 87 56 103 10 17 35 62 55 100
21 39 45 77 52 86 8 8 14 23 14 31 0 9 6 21 14 27 8 7 24 32 35 57 12 24 25
44 30 44 5 0 19 -16 31 -34 36 -59 76 -59 130 0 45 50 44 87 -3 138 -21 22
-37 43 -37 46 0 17 244 216 305 250 22 12 54 30 70 41 17 10 37 22 45 25 8 4
43 19 78 35 34 16 66 29 72 29 5 0 24 6 42 14 35 15 102 35 208 61 36 9 88 23
116 31 65 18 90 18 98 -1 3 -8 15 -15 26 -15 11 0 23 7 26 15 4 8 11 15 16 15
6 0 16 8 23 17 11 15 19 15 66 5 84 -18 385 -28 403 -13 10 8 67 13 173 15
125 2 164 6 188 19 17 9 51 17 77 17 31 0 50 5 55 15 6 11 34 15 113 17 138 4
134 22 -5 26 -89 2 -105 0 -105 -13 0 -12 -12 -15 -57 -15 -32 0 -75 -7 -98
-15 -22 -8 -112 -19 -200 -25 -88 -6 -218 -15 -290 -20 -131 -10 -186 -7 -169
10 11 11 210 39 344 49 141 11 334 30 425 42 160 21 231 23 266 5 38 -19 90
-21 107 -4 9 9 21 8 51 -2 51 -17 528 -20 539 -4 4 6 28 13 54 16 26 3 54 13
63 22 9 9 31 16 50 16 18 0 46 7 61 15 16 8 36 15 45 15 9 0 22 7 29 15 7 8
20 15 30 15 10 0 23 7 30 15 7 8 21 15 32 15 10 0 21 7 24 15 4 8 16 15 29 15
13 0 25 7 29 15 3 8 12 15 21 15 8 0 15 4 15 8 0 17 61 54 78 47 15 -6 15 -8
2 -18 -23 -18 -39 -95 -33 -155 5 -47 11 -59 53 -102 26 -27 61 -52 76 -55 16
-4 43 -13 61 -21 41 -18 120 -18 157 1 15 8 43 15 60 15 18 0 41 7 52 15 10 8
30 15 44 15 14 0 38 7 54 15 15 8 36 15 45 15 9 0 25 6 36 14 11 7 32 16 48
20 15 3 27 11 27 16 0 6 7 10 16 10 9 0 33 13 53 29 20 15 49 31 66 35 16 4
32 11 35 14 5 7 41 26 145 78 28 14 63 32 78 40 16 8 39 14 52 14 12 0 28 7
35 15 7 8 22 15 34 15 11 0 33 6 47 14 14 7 50 16 80 20 30 4 68 12 86 18 26
10 47 8 105 -5 40 -10 85 -17 100 -17 15 0 29 -4 33 -9 3 -5 18 -12 34 -16 16
-3 35 -13 42 -21 6 -8 18 -14 26 -14 22 0 138 -120 163 -168 21 -39 22 -52 16
-139 -5 -62 -13 -101 -22 -110 -8 -8 -14 -19 -14 -24 0 -12 -79 -89 -92 -89
-5 0 -16 -7 -24 -15 -22 -22 -42 -19 -49 8 -12 37 -92 107 -124 107 -15 0 -32
5 -38 11 -13 13 -208 6 -281 -10 -52 -12 -119 -44 -200 -95 -76 -48 -152 -135
-198 -226 -29 -58 -94 -130 -117 -130 -8 0 -26 -9 -41 -21 -26 -20 -26 -21
-26 -165 l0 -144 26 -10 c15 -6 32 -6 42 -1 34 17 56 -1 73 -63 26 -93 153
-242 244 -285 28 -13 62 -30 77 -38 39 -20 301 -19 318 2 7 8 21 15 31 15 32
0 171 148 226 240 29 47 60 93 70 102 24 21 66 26 86 9 27 -22 50 -6 43 30 -8
42 -36 77 -68 84 -16 4 -28 11 -28 16 0 5 -9 9 -20 9 -28 0 -54 34 -60 78 -6
47 -36 57 -46 15 -4 -15 -10 -33 -15 -38 -4 -6 -11 -35 -15 -65 -8 -62 -39
-118 -79 -144 -37 -24 -166 -26 -190 -2 -9 9 -21 16 -26 16 -5 0 -18 9 -29 20
-26 26 -26 93 0 147 21 45 112 113 151 113 41 0 136 70 198 145 17 21 32 75
38 137 5 44 3 48 -21 54 -41 10 -33 34 12 34 69 0 122 35 188 124 38 50 44 65
44 107 0 26 5 51 10 54 6 3 10 21 10 40 0 19 -4 37 -10 40 -5 3 -10 21 -10 38
0 21 -9 43 -27 63 -16 16 -36 42 -45 56 -17 25 -117 107 -148 121 -8 4 -22 11
-30 16 -53 30 -82 41 -110 41 -17 0 -40 4 -50 10 -26 14 -118 19 -175 10z
m-1521 -156 c24 -9 19 -24 -8 -24 -13 0 -26 -7 -30 -15 -3 -8 -17 -15 -31 -15
-14 0 -28 -7 -31 -15 -4 -8 -16 -15 -28 -15 -12 0 -31 -7 -42 -15 -10 -8 -31
-15 -45 -15 -15 0 -32 -7 -39 -15 -7 -8 -29 -15 -49 -15 -21 0 -46 -7 -57 -15
-10 -8 -32 -15 -47 -15 -16 0 -49 -7 -75 -15 -37 -12 -90 -15 -260 -13 -133 2
-212 7 -212 13 0 6 37 13 82 16 177 13 380 45 538 84 36 9 92 22 125 30 33 7
73 18 88 24 16 6 37 11 48 11 11 0 27 7 35 15 18 17 17 17 38 9z m1784 -478
c17 -16 32 -34 32 -39 0 -5 -14 -29 -30 -54 -17 -25 -30 -53 -28 -62 4 -20 54
-27 75 -9 15 11 16 10 9 -12 -4 -14 -12 -43 -18 -65 -16 -59 -133 -165 -183
-165 -49 0 -185 -103 -185 -140 0 -10 -5 -20 -12 -22 -6 -2 -13 -31 -16 -66
-4 -60 -3 -64 32 -107 21 -25 44 -45 52 -45 9 0 22 -7 30 -15 28 -27 165 -23
206 6 15 10 31 19 35 19 18 0 73 100 73 132 0 47 13 64 31 42 7 -9 37 -27 66
-40 61 -28 68 -44 19 -44 -27 0 -41 -8 -70 -41 -20 -22 -42 -52 -49 -67 -12
-27 -21 -40 -44 -67 -7 -7 -13 -18 -13 -23 0 -18 -132 -142 -173 -162 -35 -18
-61 -21 -163 -21 -88 0 -128 4 -150 16 -16 8 -35 15 -41 15 -7 0 -13 3 -13 8
0 4 -17 16 -37 27 -47 26 -103 97 -142 182 -18 37 -38 81 -46 96 -20 39 -20
256 0 312 8 22 15 46 15 53 0 8 27 54 60 104 33 49 60 92 60 96 0 13 80 82
133 115 47 30 110 57 162 71 11 2 81 4 155 3 134 -2 135 -3 168 -31z m-833
-465 c-4 -25 -8 -69 -9 -96 -1 -28 -6 -56 -10 -64 -6 -9 -3 -17 8 -23 22 -12
20 -35 -4 -43 -15 -5 -26 0 -40 17 -24 28 -24 38 -4 52 14 10 13 15 -6 39 -26
33 -20 57 15 57 25 0 26 2 20 33 -4 17 -9 40 -11 49 -5 17 24 40 39 31 5 -3 6
-26 2 -52z"/>
<path d="M5640 1915 c-12 -22 -11 -26 11 -44 23 -19 25 -19 43 -1 13 13 17 26
12 44 -9 35 -48 36 -66 1z"/>
<path d="M5330 1864 c0 -17 22 -14 28 4 2 7 -3 12 -12 12 -9 0 -16 -7 -16 -16z"/>
<path d="M5402 1838 c-19 -25 -24 -74 -7 -88 8 -7 15 -22 15 -34 0 -22 62
-125 84 -138 20 -13 56 -9 56 7 0 8 -19 34 -43 57 -33 34 -44 55 -54 98 -6 31
-9 68 -6 83 4 22 2 27 -15 27 -11 0 -24 -6 -30 -12z"/>
<path d="M5246 1801 c-8 -12 3 -41 15 -41 12 0 12 37 0 45 -5 3 -12 1 -15 -4z"/>
<path d="M5334 1776 c-7 -20 2 -46 16 -46 13 0 13 47 0 55 -6 3 -13 -1 -16 -9z"/>
<path d="M5257 1699 c-23 -13 -13 -29 19 -29 18 0 25 5 22 17 -4 21 -18 25
-41 12z"/>
<path d="M5290 1635 c-9 -11 -10 -19 -3 -26 17 -17 48 -6 48 16 0 25 -28 31
-45 10z"/>
<path d="M5152 1593 c2 -10 10 -18 18 -18 8 0 16 8 18 18 2 12 -3 17 -18 17
-15 0 -20 -5 -18 -17z"/>
<path d="M5271 1551 c-9 -6 -11 -18 -7 -36 8 -31 30 -28 34 4 4 28 -8 43 -27
32z"/>
<path d="M5352 1538 c2 -15 10 -23 23 -23 30 0 27 39 -3 43 -20 3 -23 0 -20
-20z"/>
<path d="M5302 1458 c-15 -15 2 -38 28 -38 26 0 43 23 28 38 -7 7 -19 12 -28
12 -9 0 -21 -5 -28 -12z"/>
<path d="M5150 1446 c0 -8 4 -18 10 -21 13 -8 52 14 45 26 -10 15 -55 11 -55
-5z"/>
<path d="M5210 1371 c-7 -14 -6 -22 5 -31 18 -15 35 -5 35 20 0 25 -28 33 -40
11z"/>
<path d="M5302 1343 c3 -29 32 -43 50 -25 18 18 -1 52 -28 52 -22 0 -25 -4
-22 -27z"/>
<path d="M5274 1279 c-9 -14 24 -41 46 -37 8 2 15 12 15 23 0 23 -48 34 -61
14z"/>
<path d="M5214 1247 c-3 -9 -3 -25 0 -34 6 -15 8 -15 24 0 15 16 15 18 0 34
-16 15 -18 15 -24 0z"/>
<path d="M5333 1193 c-17 -6 -17 -48 0 -62 17 -14 37 5 37 35 0 23 -16 34 -37
27z"/>
<path d="M5446 1175 c-9 -24 4 -45 29 -45 32 0 40 17 19 41 -21 23 -40 25 -48
4z"/>
<path d="M5720 1130 c0 -20 5 -30 15 -30 21 0 30 27 15 45 -19 23 -30 18 -30
-15z"/>
<path d="M5837 1154 c-9 -10 2 -24 19 -24 8 0 14 7 14 15 0 15 -21 21 -33 9z"/>
<path d="M5592 1101 c-20 -12 -10 -46 14 -49 25 -4 40 24 23 44 -13 16 -19 17
-37 5z"/>
<path d="M5405 1090 c-11 -18 6 -50 26 -50 14 0 19 7 19 30 0 23 -5 30 -19 30
-11 0 -23 -5 -26 -10z"/>
<path d="M5274 1069 c-10 -17 13 -36 27 -22 12 12 4 33 -11 33 -5 0 -12 -5
-16 -11z"/>
<path d="M5473 1034 c-3 -8 1 -22 9 -30 13 -13 16 -13 27 0 7 9 11 23 7 31 -7
20 -35 19 -43 -1z"/>
<path d="M5684 1025 c-9 -21 3 -45 21 -45 10 0 15 10 15 30 0 32 -26 43 -36
15z"/>
<path d="M5571 977 c-16 -16 7 -41 25 -26 8 6 14 15 14 19 0 14 -27 19 -39 7z"/>
<path d="M1586 2075 c-3 -8 -14 -15 -25 -15 -11 0 -26 -7 -35 -15 -8 -8 -18
-15 -22 -15 -14 0 -259 -124 -262 -132 -2 -4 -10 -8 -19 -8 -8 0 -27 -6 -41
-14 -31 -17 -133 -64 -207 -96 -27 -12 -64 -28 -82 -36 -17 -8 -35 -14 -41
-14 -5 0 -15 -7 -22 -15 -7 -8 -19 -15 -27 -15 -8 0 -32 -13 -52 -29 -20 -16
-45 -30 -55 -32 -26 -5 -33 -29 -8 -29 11 0 42 11 69 24 26 14 71 34 98 46 28
12 59 25 70 30 11 5 30 12 43 15 12 4 22 11 22 16 0 5 9 9 20 9 11 0 45 13 74
29 30 15 65 31 80 35 14 3 26 11 26 16 0 6 7 10 15 10 16 0 97 39 105 51 3 4
18 11 33 14 15 4 27 10 27 14 0 4 12 12 28 18 15 7 54 28 87 47 33 20 70 40
83 46 12 5 22 14 22 20 0 5 11 10 25 10 16 0 25 6 25 15 0 9 -9 15 -24 15 -13
0 -26 -7 -30 -15z"/>
<path d="M2877 2054 c-9 -9 24 -54 39 -54 8 0 14 3 14 8 0 12 -47 52 -53 46z"/>
<path d="M2471 1821 c-14 -9 -35 -68 -50 -146 -4 -22 -13 -51 -18 -65 -6 -14
-18 -52 -27 -85 -9 -33 -24 -81 -32 -106 -7 -26 -14 -58 -14 -71 0 -14 -3 -27
-6 -31 -9 -9 -54 15 -54 29 0 17 -80 54 -117 54 -17 0 -36 -7 -43 -15 -7 -8
-18 -15 -24 -15 -35 0 -105 -124 -119 -210 -23 -140 -13 -172 71 -237 l42 -32
47 16 c27 9 60 29 74 45 32 35 52 36 74 2 21 -33 77 -56 113 -48 32 8 72 42
72 61 0 24 -29 26 -48 3 -14 -17 -24 -21 -41 -15 -32 10 -42 43 -25 84 8 18
14 42 14 52 0 10 6 33 14 51 13 31 25 74 46 158 4 19 13 49 18 65 6 17 18 57
27 90 10 33 22 74 27 90 6 17 14 48 18 70 10 50 37 132 54 165 8 14 11 31 9
38 -5 14 -81 16 -102 3z m-220 -498 c8 -10 22 -33 32 -51 17 -29 17 -34 3 -54
-9 -12 -16 -34 -16 -48 -1 -14 -7 -36 -15 -50 -8 -14 -14 -39 -15 -56 0 -38
-30 -67 -89 -88 -39 -13 -48 -13 -73 0 -28 14 -29 17 -22 62 3 26 13 62 20 81
8 18 14 43 14 55 0 37 37 119 64 143 32 27 77 30 97 6z"/>
<path d="M3262 1816 c-13 -18 -49 -150 -77 -281 -17 -78 -36 -148 -57 -210 -6
-16 -14 -48 -18 -70 -4 -22 -12 -53 -19 -68 -6 -16 -11 -70 -11 -122 l0 -93
46 -41 c34 -30 56 -41 79 -41 60 0 122 44 127 91 4 34 -37 40 -46 6 -4 -16
-17 -27 -42 -35 -42 -13 -69 -3 -79 27 -7 23 9 132 24 160 6 11 11 30 11 42 0
12 6 45 14 73 8 28 21 78 29 111 8 33 20 80 27 105 6 25 15 63 19 85 9 48 29
111 46 145 16 32 29 120 18 121 -46 6 -85 4 -91 -5z"/>
<path d="M4147 1801 c-9 -16 -17 -42 -17 -59 0 -16 -6 -52 -14 -78 -40 -139
-46 -162 -46 -181 0 -29 -25 -46 -55 -39 -19 5 -28 1 -41 -18 -22 -34 -10 -65
28 -73 38 -8 45 -26 24 -69 -9 -19 -16 -48 -16 -65 0 -16 -7 -44 -16 -61 -30
-58 -1 -167 61 -230 37 -38 85 -55 128 -44 34 8 107 75 107 97 0 32 -27 34
-54 2 -40 -47 -68 -58 -103 -39 -35 17 -60 87 -49 133 4 15 11 51 16 80 4 28
11 57 15 63 4 7 10 35 14 64 5 46 8 51 33 54 32 4 58 36 58 69 0 19 -5 23 -30
23 -35 0 -39 18 -16 90 17 54 36 131 46 185 4 22 13 52 20 67 19 40 7 58 -38
58 -31 0 -41 -5 -55 -29z"/>
<path d="M4618 1818 c-10 -8 -22 -41 -28 -78 -7 -36 -18 -90 -25 -120 -7 -30
-16 -77 -20 -105 -8 -61 -19 -75 -55 -75 -29 0 -40 -15 -40 -56 0 -19 8 -29
35 -40 35 -14 35 -15 20 -44 -8 -16 -15 -41 -15 -55 0 -14 -6 -38 -13 -53 -19
-38 -20 -103 -2 -138 8 -16 15 -39 15 -51 0 -13 4 -23 9 -23 5 0 12 -9 16 -20
3 -10 25 -33 47 -50 34 -25 52 -30 95 -30 56 0 113 29 113 57 0 7 5 13 10 13
19 0 10 29 -11 35 -17 6 -27 0 -46 -24 -20 -25 -32 -31 -64 -31 -45 0 -61 12
-82 61 -15 37 -10 101 19 226 8 34 14 76 14 93 0 27 3 30 30 30 20 0 32 6 36
18 3 9 10 26 16 36 8 15 6 22 -8 33 -10 7 -24 13 -31 13 -18 0 -17 49 2 93 8
20 15 52 15 72 0 20 6 51 14 70 8 18 17 58 21 88 7 51 6 55 -17 60 -35 10 -52
8 -70 -5z"/>
<path d="M1142 1652 c-34 -26 -28 -76 10 -80 59 -7 94 43 55 78 -26 24 -35 25
-65 2z"/>
<path d="M7951 1584 c-24 -30 -26 -45 -9 -62 27 -27 88 0 88 40 0 17 -31 48
-48 48 -6 0 -20 -12 -31 -26z"/>
<path d="M3668 1592 c-10 -2 -21 -16 -24 -30 -3 -15 -9 -34 -14 -44 -11 -19
10 -41 35 -36 15 3 44 65 45 94 0 14 -19 22 -42 16z"/>
<path d="M3783 1578 c-14 -18 -25 -82 -17 -102 17 -44 67 5 68 67 1 35 -2 42
-20 45 -11 2 -25 -3 -31 -10z"/>
<path d="M1348 1403 c-58 -9 -187 -181 -188 -251 -1 -9 -7 -28 -15 -42 -40
-70 0 -176 74 -199 88 -26 179 19 231 116 12 21 25 45 29 53 26 47 40 96 47
158 6 62 4 75 -15 105 -29 48 -93 72 -163 60z m93 -62 c22 -18 23 -20 7 -57
-24 -60 -39 -106 -48 -144 -19 -80 -44 -131 -77 -160 -46 -40 -76 -39 -100 4
-13 24 6 104 43 179 8 16 14 34 14 42 0 22 38 100 57 118 17 14 58 35 74 36 4
1 17 -7 30 -18z"/>
<path d="M1053 1388 c-6 -7 -13 -22 -16 -33 -3 -11 -15 -45 -27 -75 -11 -30
-28 -73 -36 -95 -9 -22 -18 -53 -21 -70 -3 -16 -11 -37 -18 -45 -7 -8 -15 -24
-18 -35 -3 -11 -15 -45 -27 -75 -12 -30 -24 -64 -27 -75 -3 -11 -11 -33 -18
-50 -38 -89 -45 -107 -45 -123 0 -10 -7 -27 -15 -38 -8 -10 -15 -26 -15 -34 0
-29 -100 -100 -140 -100 -28 0 -55 23 -74 63 -13 26 -53 35 -62 14 -9 -23 38
-84 82 -106 99 -51 210 -6 312 125 18 23 32 52 32 65 0 13 7 33 15 43 8 11 15
29 15 40 0 12 7 30 15 40 8 11 15 28 15 39 0 10 6 31 13 45 8 15 21 42 30 60
9 19 17 41 17 49 0 17 26 101 47 150 7 17 13 36 13 42 0 10 20 59 48 116 24
51 14 70 -39 73 -29 2 -50 -2 -56 -10z"/>
<path d="M1661 1386 c-7 -8 -16 -36 -21 -63 -12 -67 -30 -132 -46 -171 -8 -18
-14 -42 -14 -53 0 -12 -6 -33 -14 -47 -17 -34 -36 -94 -36 -115 0 -19 34 -30
76 -25 25 3 29 9 40 58 7 30 17 71 23 90 5 19 15 55 22 80 6 25 19 65 29 90
14 39 20 45 46 45 23 0 32 -6 43 -32 11 -26 21 -33 42 -33 22 0 29 6 34 30 12
53 -3 90 -42 107 -25 10 -39 11 -46 4 -14 -14 -57 -14 -57 -1 0 15 -38 50 -54
50 -7 0 -19 -6 -25 -14z"/>
<path d="M2921 1364 c-12 -15 -21 -33 -21 -40 0 -23 -19 -16 -49 19 -25 27
-36 32 -74 31 -52 -1 -114 -27 -140 -58 -35 -41 -67 -96 -67 -114 0 -9 -7 -28
-16 -41 -23 -32 -14 -113 20 -182 39 -78 83 -96 159 -64 20 8 39 15 42 15 9 0
5 -51 -7 -73 -6 -12 -15 -35 -19 -52 -19 -77 -59 -174 -87 -212 -36 -49 -84
-67 -158 -60 -68 7 -100 27 -106 69 -2 15 -11 24 -25 26 -20 3 -23 -1 -23 -30
0 -26 9 -40 43 -70 23 -21 52 -38 64 -38 12 0 25 -4 28 -10 3 -6 29 -10 57
-10 40 0 65 8 113 34 101 57 135 102 169 221 9 33 22 74 27 90 6 17 15 48 19
71 5 22 13 51 18 65 6 13 17 51 27 84 9 33 21 74 27 90 5 17 13 46 18 65 4 19
12 46 17 60 15 37 33 95 33 107 0 9 -49 33 -66 33 -1 0 -12 -12 -23 -26z m-87
-48 c57 -29 59 -49 20 -144 -8 -18 -14 -45 -15 -60 -1 -54 -34 -115 -75 -139
-47 -27 -72 -28 -103 -7 -17 13 -22 23 -17 43 3 14 9 46 14 71 4 25 14 55 20
67 7 12 12 34 12 50 1 39 30 90 65 113 37 23 46 24 79 6z"/>
<path d="M3605 1351 c-83 -45 -122 -97 -141 -188 -38 -183 73 -301 238 -251
67 20 158 129 158 189 0 11 5 30 11 41 9 16 8 35 -1 77 -15 62 -36 91 -92 127
-45 29 -126 31 -173 5z m125 -41 c39 0 54 -98 25 -167 -8 -19 -15 -43 -15 -53
0 -10 -11 -43 -25 -74 -27 -60 -43 -70 -110 -64 -33 3 -40 7 -46 32 -9 33 2
122 21 176 41 112 48 125 81 143 19 9 40 15 47 12 8 -3 17 -5 22 -5z"/>
<path d="M6343 1342 c-23 -2 -47 -10 -53 -18 -7 -7 -18 -14 -26 -14 -18 0
-113 -119 -120 -150 -3 -14 -12 -40 -20 -58 -18 -41 -17 -72 1 -96 8 -11 15
-29 15 -41 0 -25 44 -69 83 -84 61 -23 148 -8 174 29 21 29 45 24 76 -15 39
-49 83 -49 126 1 26 29 30 39 20 50 -10 13 -14 12 -29 -1 -21 -19 -50 -19 -50
0 0 8 4 34 10 57 5 24 16 79 25 123 9 44 23 101 31 126 25 83 22 89 -41 89
-41 0 -57 -4 -60 -15 -3 -8 -7 -22 -10 -31 -4 -13 -11 -10 -34 14 -33 32 -55
39 -118 34z m122 -75 l39 -34 -17 -53 c-9 -29 -17 -70 -17 -91 0 -42 -23 -109
-38 -109 -5 0 -22 -13 -38 -30 -34 -35 -80 -40 -114 -12 -20 16 -22 27 -21 91
1 42 8 85 16 101 8 16 15 36 15 44 0 29 42 97 69 111 40 22 64 18 106 -18z"/>
<path d="M6766 1318 c-3 -13 -10 -52 -15 -88 -6 -36 -18 -105 -26 -155 -9 -49
-17 -117 -18 -150 l-2 -60 50 0 50 0 -3 31 c-2 18 4 62 13 98 8 37 15 84 15
104 2 100 42 182 89 182 37 0 50 -37 39 -110 -6 -36 -17 -82 -24 -103 -8 -20
-14 -51 -14 -68 0 -16 -7 -44 -16 -61 -31 -59 9 -100 80 -82 24 6 26 10 26 63
0 31 7 81 15 111 8 30 15 75 15 100 0 37 7 53 38 92 35 45 79 67 102 53 14 -9
12 -90 -5 -160 -8 -33 -15 -76 -15 -95 0 -19 -7 -46 -15 -60 -20 -35 -19 -96
1 -104 22 -9 57 -7 73 3 8 5 18 47 26 107 7 55 19 136 26 182 15 97 8 119 -59
165 -36 24 -43 26 -69 15 -15 -7 -40 -25 -54 -40 -14 -15 -29 -28 -33 -28 -4
0 -18 12 -31 28 -21 24 -30 27 -91 27 -45 0 -69 4 -71 13 -3 7 -22 12 -49 12
-37 0 -44 -3 -48 -22z"/>
<path d="M7426 1321 c-10 -11 -21 -48 -26 -87 -13 -109 -30 -205 -46 -260 -8
-28 -14 -66 -14 -85 -1 -19 -7 -52 -15 -74 -8 -22 -15 -55 -15 -73 0 -18 -7
-49 -15 -69 -8 -19 -15 -50 -15 -67 0 -17 -8 -53 -17 -79 -21 -58 -11 -81 37
-85 40 -4 69 26 70 72 0 16 6 55 14 85 25 101 37 165 45 247 5 44 14 90 20
102 16 29 41 28 41 -1 0 -36 59 -87 101 -87 52 0 101 45 122 112 69 219 62
314 -27 351 -53 22 -54 22 -108 -7 -44 -23 -46 -23 -64 -6 -30 28 -68 33 -88
11z m225 -51 c24 -13 25 -64 4 -134 -8 -27 -15 -69 -15 -93 0 -52 -22 -99 -50
-108 -30 -9 -80 23 -105 69 -20 36 -21 43 -9 84 8 25 14 59 14 75 0 20 12 45
36 73 29 37 41 44 70 44 20 0 44 -5 55 -10z"/>
<path d="M7895 1322 c-12 -8 -34 -99 -45 -187 -4 -33 -11 -85 -15 -117 -9 -70
-2 -103 32 -134 40 -37 92 -29 158 24 38 31 47 46 39 66 -8 22 -23 20 -43 -5
-10 -13 -30 -21 -51 -22 l-35 -2 3 70 c4 81 27 198 48 238 21 42 18 54 -17 66
-37 13 -60 14 -74 3z"/>
<path d="M8205 1310 c-3 -5 -10 -49 -16 -97 -6 -48 -17 -110 -25 -137 -8 -27
-14 -69 -14 -92 0 -23 -8 -56 -17 -74 -18 -31 -18 -31 6 -50 22 -19 40 -19 89
-4 8 2 12 29 12 86 1 46 7 101 15 123 8 22 15 54 15 71 0 24 8 38 34 58 19 14
39 26 44 26 6 0 12 7 16 15 6 18 53 20 58 3 5 -15 -13 -124 -47 -279 -19 -86
-19 -96 4 -109 26 -14 74 -13 89 2 7 7 12 43 12 91 0 44 7 107 16 140 24 95
23 156 -6 195 -19 26 -31 32 -61 32 -21 0 -39 -3 -41 -7 -5 -12 -99 -76 -103
-71 -3 2 1 19 8 37 10 27 9 33 -3 41 -20 13 -77 13 -85 0z"/>
<path d="M8652 1261 c-33 -33 -52 -61 -55 -83 -3 -18 -10 -58 -16 -88 -16 -84
4 -174 47 -214 33 -29 103 -24 157 13 62 42 67 28 36 -94 -5 -22 -15 -67 -21
-100 -7 -33 -15 -74 -18 -92 -10 -49 -73 -117 -126 -137 -44 -17 -49 -17 -81
-1 -26 12 -35 22 -35 40 0 22 -24 45 -49 45 -23 0 -22 -42 2 -79 37 -55 84
-74 160 -66 105 12 169 63 225 180 37 76 70 255 79 430 5 108 9 129 25 138 15
10 18 25 18 85 l0 73 -47 -3 c-41 -3 -48 -6 -53 -28 -8 -35 -30 -35 -67 0 -27
25 -40 30 -82 30 -47 0 -53 -3 -99 -49z m199 -35 c23 -22 26 -31 22 -73 -2
-26 -11 -83 -20 -125 -15 -71 -19 -79 -49 -93 -48 -22 -100 -20 -118 7 -8 12
-12 26 -8 32 3 6 9 56 12 111 5 83 10 106 28 133 20 27 29 32 65 32 31 0 49
-7 68 -24z"/>
<path d="M8210 591 c0 -23 5 -30 23 -33 15 -2 23 -11 26 -28 6 -49 51 -48 51
1 0 19 -5 29 -14 29 -8 0 -21 12 -28 28 -7 15 -23 28 -36 30 -19 3 -22 -1 -22
-27z"/>
<path d="M6560 485 c0 -8 7 -15 15 -15 8 0 15 7 15 15 0 8 -7 15 -15 15 -8 0
-15 -7 -15 -15z"/>
<path d="M0 10 c0 -7 1016 -10 3048 -10 1926 0 3041 4 3032 10 -21 13 -6080
13 -6080 0z"/>
<path d="M6105 10 c-4 -7 300 -10 855 -10 578 0 859 3 855 10 -9 14 -1702 13
-1710 0z"/>
<path d="M7845 10 c-4 -7 190 -10 574 -10 367 0 581 4 581 10 0 13 -1147 13
-1155 0z"/>
</g>
</svg>
