<?xml version="1.0" standalone="no"?>
<!DOCTYPE svg PUBLIC "-//W3C//DTD SVG 20010904//EN"
 "http://www.w3.org/TR/2001/REC-SVG-20010904/DTD/svg10.dtd">
<svg version="1.0" xmlns="http://www.w3.org/2000/svg"
 width="1385.000000pt" height="484.000000pt" viewBox="0 0 1385.000000 484.000000"
 preserveAspectRatio="xMidYMid meet">
<metadata>
Created by potrace 1.16, written by Peter Selinger 2001-2019
</metadata>
<g transform="translate(0.000000,484.000000) scale(0.100000,-0.100000)"
fill="#000000" stroke="none">
<path d="M8565 4025 c-41 -14 -164 -50 -180 -52 -11 -2 -59 -19 -106 -38 -48
-19 -114 -43 -149 -55 -34 -11 -79 -32 -101 -45 -21 -14 -44 -25 -51 -25 -6 0
-21 -9 -33 -20 -21 -20 -135 -79 -215 -110 -25 -10 -70 -35 -100 -55 -88 -60
-223 -119 -395 -173 -237 -74 -298 -86 -420 -80 -93 5 -109 9 -181 44 -74 37
-80 42 -111 101 -48 93 -52 154 -18 269 15 52 34 105 41 119 13 26 8 95 -7 95
-5 0 -33 -12 -62 -26 -46 -23 -196 -82 -222 -88 -5 -1 -46 -14 -90 -28 -44
-14 -159 -43 -255 -63 -96 -20 -204 -43 -240 -51 -36 -8 -87 -19 -115 -24 -27
-5 -72 -16 -100 -25 -91 -29 -660 -92 -990 -109 -44 -3 -147 -12 -230 -20
-200 -20 -380 -35 -490 -41 -49 -3 -115 -7 -145 -10 -102 -9 -174 -14 -360
-25 -102 -6 -192 -13 -200 -15 -8 -2 -64 -9 -125 -15 -147 -14 -403 -49 -440
-60 -16 -5 -68 -16 -115 -25 -47 -9 -146 -33 -220 -54 -74 -21 -153 -42 -175
-45 -44 -8 -176 -51 -215 -71 -14 -7 -61 -25 -105 -40 -89 -30 -224 -93 -300
-140 -27 -17 -57 -34 -65 -39 -42 -20 -115 -75 -185 -139 -11 -10 -38 -33 -60
-50 -59 -47 -232 -222 -298 -302 -75 -92 -72 -88 -79 -105 -3 -8 -30 -46 -60
-85 -57 -74 -134 -190 -158 -240 -8 -16 -28 -50 -46 -75 -68 -98 -100 -147
-123 -190 -13 -25 -39 -65 -56 -90 -18 -25 -35 -55 -39 -66 -4 -12 -15 -29
-26 -39 -11 -10 -20 -22 -20 -28 0 -5 -18 -32 -40 -59 -22 -28 -40 -56 -40
-63 0 -16 25 -26 36 -15 5 5 55 10 111 11 l101 1 19 37 c10 20 20 38 23 41 4
3 53 91 110 195 57 105 127 231 157 281 29 50 53 96 53 101 0 6 16 30 35 53
19 22 44 59 57 81 12 21 25 39 29 39 3 0 9 -14 13 -31 3 -17 20 -44 37 -60 39
-37 96 -40 140 -7 39 29 99 120 99 150 0 32 -35 86 -65 100 -14 6 -25 14 -25
19 0 4 46 26 103 50 56 23 119 53 139 66 21 13 41 23 45 23 5 0 44 18 88 40
44 22 85 40 92 40 7 0 29 9 49 21 21 11 62 30 93 41 31 11 61 24 66 29 6 4 84
41 174 83 90 41 171 82 180 89 9 8 36 22 61 31 25 10 86 41 135 69 94 53 180
99 330 175 50 25 109 61 132 79 41 33 44 34 95 24 68 -12 462 -13 783 -2 236
9 298 16 430 52 22 6 63 14 90 19 28 4 68 12 90 18 22 6 74 13 115 17 157 14
327 43 408 71 54 18 62 18 62 -2 0 -10 6 -13 19 -9 10 3 31 1 45 -5 41 -15
523 -16 626 -1 203 30 532 123 639 182 9 4 68 33 131 63 107 51 148 75 251
150 49 36 63 26 42 -29 -39 -104 -46 -147 -34 -210 13 -61 49 -143 79 -180 48
-58 276 -121 377 -105 104 17 344 88 532 159 61 22 170 82 227 123 21 15 43
28 49 28 15 0 156 70 215 107 29 18 57 33 62 33 6 0 27 11 48 24 20 13 75 37
122 52 47 15 94 33 105 39 11 7 43 19 70 28 28 8 82 25 120 38 63 22 87 24
250 24 187 0 264 -13 380 -62 138 -59 297 -205 374 -342 21 -38 25 -57 25
-135 0 -121 -10 -181 -42 -241 -54 -105 -139 -180 -247 -220 -55 -19 -72 -31
-62 -41 4 -4 35 3 69 16 109 40 171 89 232 184 45 71 54 92 61 153 3 27 10 71
16 99 7 38 6 65 -5 110 -21 89 -29 105 -101 194 -141 177 -327 282 -546 310
-77 9 -281 13 -304 5z m-2121 -133 c-49 -43 -65 -55 -129 -93 -134 -81 -381
-189 -502 -218 -43 -10 -89 -23 -103 -29 -40 -17 -197 -49 -307 -63 -103 -12
-543 -7 -591 7 -36 10 -24 38 18 42 19 1 103 12 185 24 83 11 161 22 175 23
89 9 157 19 245 35 55 10 107 18 115 18 17 0 179 38 225 53 17 6 89 23 160 39
72 16 150 34 175 40 64 15 236 85 295 120 63 37 79 38 39 2z m-1764 -381 c-8
-5 -35 -12 -60 -16 -25 -4 -70 -13 -100 -20 -30 -8 -77 -16 -105 -19 -27 -4
-86 -10 -130 -15 -79 -9 -267 -43 -335 -60 -114 -30 -244 -43 -451 -47 -431
-9 -650 -10 -654 -4 -4 6 42 14 225 40 36 6 88 12 115 14 28 2 104 11 170 20
125 16 389 41 535 52 47 3 137 12 200 20 63 7 162 16 220 19 58 4 137 10 175
14 99 11 213 12 195 2z m-2060 -218 c0 -10 -200 -120 -525 -290 -233 -122
-498 -249 -542 -259 -15 -4 -48 -17 -73 -30 -25 -13 -51 -24 -58 -24 -7 0 -20
-4 -30 -10 -9 -5 -53 -26 -97 -45 -44 -20 -100 -49 -125 -64 -25 -16 -56 -32
-70 -36 -14 -4 -49 -18 -79 -32 -29 -13 -58 -22 -64 -20 -5 1 5 20 24 41 19
20 43 48 55 60 11 13 27 27 36 32 14 9 54 41 158 129 26 22 59 51 75 63 94 80
410 250 495 266 3 1 10 5 16 9 14 8 163 60 219 75 96 26 246 63 315 78 41 9
112 24 158 34 46 10 86 20 89 24 9 8 23 8 23 -1z"/>
<path d="M8490 3183 c-92 -22 -133 -35 -185 -61 -59 -29 -165 -92 -183 -109
-7 -7 -17 -13 -21 -13 -3 0 -31 -25 -61 -55 -67 -67 -80 -82 -80 -93 0 -5 -11
-19 -25 -32 -14 -13 -25 -29 -25 -36 0 -7 -4 -14 -8 -16 -5 -1 -26 -34 -46
-73 -46 -85 -118 -161 -190 -200 -29 -16 -59 -37 -65 -47 -6 -10 -14 -80 -17
-155 -11 -261 -10 -264 24 -298 25 -26 31 -27 90 -22 61 6 63 6 73 -21 6 -15
13 -40 16 -57 2 -16 12 -41 22 -55 10 -14 28 -46 41 -73 13 -26 63 -92 112
-147 70 -78 102 -106 151 -130 34 -17 69 -35 77 -39 29 -16 115 -44 175 -57
70 -16 281 -12 364 6 51 12 199 100 228 137 7 8 25 29 40 47 55 61 121 153
172 239 29 48 66 103 83 122 27 32 35 35 83 35 39 0 61 -6 89 -25 20 -14 40
-25 45 -25 4 0 5 20 1 44 -12 81 -72 134 -197 175 -60 20 -73 38 -80 115 -4
44 -10 66 -19 66 -16 0 -54 -99 -64 -170 -16 -112 -35 -156 -93 -214 -54 -54
-102 -70 -212 -70 -71 -1 -88 3 -151 33 -93 45 -118 81 -118 171 1 99 40 190
98 229 13 9 43 29 66 45 24 15 73 37 109 47 36 11 78 28 93 39 15 11 31 20 35
20 15 0 132 106 156 141 27 39 64 147 68 194 7 97 -10 122 -64 91 -16 -9 -32
-15 -34 -12 -2 2 16 32 41 66 l46 62 -17 29 c-37 63 -110 120 -185 145 -65 22
-85 24 -237 22 -97 -1 -189 -7 -221 -15z m459 -33 c64 -17 189 -140 143 -140
-5 0 -17 -18 -27 -40 -10 -22 -29 -54 -41 -71 -44 -61 14 -109 66 -54 12 13
27 22 31 19 25 -15 1 -150 -40 -231 -32 -63 -209 -193 -262 -193 -8 0 -36 -11
-63 -25 -27 -14 -54 -25 -61 -25 -6 0 -28 -16 -49 -35 -21 -19 -42 -35 -46
-35 -14 0 -62 -91 -76 -144 -29 -109 -12 -199 48 -251 22 -19 53 -37 69 -40
16 -4 29 -10 29 -15 0 -5 25 -16 56 -25 50 -14 63 -15 136 -1 97 18 165 59
210 124 32 47 68 154 68 203 0 34 9 59 21 59 5 0 9 -9 9 -21 0 -19 55 -79 73
-79 28 0 158 -73 177 -100 25 -35 22 -47 -8 -31 -12 6 -45 11 -74 11 -77 0
-113 -28 -170 -130 -108 -194 -258 -364 -373 -422 -111 -56 -389 -60 -512 -7
-25 11 -67 35 -93 54 -26 19 -52 35 -58 35 -30 0 -202 251 -219 319 -3 14 -20
58 -36 96 -29 68 -31 76 -31 225 -1 128 3 174 23 261 24 112 25 114 136 292
83 132 197 251 301 313 87 52 211 95 289 101 33 3 66 9 73 13 21 11 232 4 281
-10z m-1214 -930 c0 -136 8 -123 -87 -135 -46 -6 -48 -5 -48 18 0 23 3 25 38
20 27 -4 42 -1 51 11 12 14 8 16 -39 16 -65 0 -64 19 3 40 52 17 58 37 8 32
-44 -5 -57 9 -53 57 4 40 5 41 41 41 20 0 43 5 51 10 32 20 35 10 35 -110z"/>
<path d="M7170 2821 c0 -6 -11 -11 -25 -11 -17 0 -29 -8 -35 -22 -11 -28 -47
-176 -65 -273 -20 -106 -55 -268 -61 -277 -3 -5 -21 -7 -40 -6 -43 3 -64 -17
-75 -74 -9 -47 5 -68 45 -68 37 0 46 -13 37 -50 -34 -131 -54 -241 -54 -289 0
-69 12 -149 24 -157 5 -3 9 -16 9 -28 0 -13 7 -29 15 -36 8 -7 15 -18 15 -24
0 -15 72 -86 88 -86 7 0 12 -4 12 -9 0 -11 79 -31 126 -31 21 0 56 9 78 20 44
21 101 84 91 100 -12 19 -34 10 -54 -24 -34 -54 -110 -71 -177 -40 -25 12 -41
31 -62 78 -33 69 -34 52 12 311 15 83 29 161 31 175 15 84 14 83 54 76 37 -6
38 -5 49 32 7 20 13 55 14 77 3 39 2 40 -32 45 -41 6 -41 5 -11 145 11 50 29
140 41 200 11 61 26 131 32 157 13 52 0 81 -32 76 -9 -2 -24 3 -33 11 -11 9
-17 10 -17 2z"/>
<path d="M3810 2807 c0 -7 -9 -32 -20 -55 -11 -22 -20 -45 -20 -51 0 -5 -16
-65 -36 -133 -19 -68 -48 -168 -63 -223 -43 -155 -104 -345 -110 -345 -4 0
-12 13 -19 28 -30 68 -133 127 -218 124 -68 -3 -155 -64 -202 -143 -23 -39
-75 -169 -67 -169 2 0 1 -10 -4 -23 -25 -66 -31 -192 -12 -250 13 -37 68 -97
131 -140 58 -40 173 -4 249 78 45 49 58 54 68 28 12 -34 66 -93 84 -93 10 0
21 -4 24 -10 11 -18 96 -11 132 11 34 21 68 71 56 83 -12 12 -23 6 -34 -18
-14 -30 -47 -45 -82 -39 -74 14 -71 58 28 393 35 119 45 153 100 350 13 47 33
119 45 160 12 41 30 107 40 145 11 39 28 97 40 129 11 33 20 73 20 89 0 17 7
38 16 48 26 29 8 39 -72 39 -54 0 -74 -3 -74 -13z m-342 -734 c12 -10 34 -44
50 -75 l29 -58 -18 -55 c-10 -31 -21 -73 -25 -93 -4 -20 -11 -42 -15 -48 -5
-6 -12 -39 -16 -74 -7 -72 -38 -117 -105 -151 -53 -27 -135 -30 -172 -6 -25
17 -27 23 -23 60 2 23 25 125 51 227 47 183 48 186 92 229 39 38 75 56 120 60
7 1 21 -7 32 -16z"/>
<path d="M6412 2788 c-12 -19 -29 -68 -38 -109 -10 -41 -30 -126 -46 -189 -16
-63 -33 -136 -38 -162 -5 -26 -13 -56 -19 -67 -10 -18 -62 -36 -86 -30 -6 2
-20 0 -31 -4 -17 -6 -23 -18 -27 -54 -7 -63 -3 -70 48 -78 25 -3 47 -9 49 -13
2 -4 -4 -44 -14 -88 -11 -44 -21 -91 -24 -105 -3 -13 -13 -51 -22 -84 -29
-104 -21 -156 42 -292 36 -75 110 -123 190 -123 46 0 64 5 90 25 18 14 37 25
43 25 14 0 61 64 61 83 0 27 -24 20 -43 -13 -10 -16 -38 -41 -62 -55 -40 -24
-47 -25 -85 -14 -55 17 -87 59 -96 129 -12 86 -15 68 42 318 13 57 24 115 24
128 0 33 34 64 69 64 26 0 31 5 45 47 23 66 21 71 -27 84 l-43 10 12 57 c11
55 59 275 89 412 8 36 16 78 17 95 3 29 2 30 -48 33 -49 3 -52 2 -72 -30z"/>
<path d="M5036 2802 c-3 -5 -18 -51 -34 -103 -26 -82 -42 -146 -93 -374 -6
-27 -27 -104 -46 -170 -19 -66 -41 -145 -48 -175 -8 -30 -23 -89 -35 -130 -27
-93 -36 -224 -20 -290 14 -57 78 -127 133 -146 42 -15 124 -7 162 15 34 20 75
75 75 102 0 30 -24 22 -37 -11 -12 -31 -63 -60 -130 -73 -28 -6 -36 -2 -63 31
-32 39 -36 62 -21 121 6 20 40 162 76 316 68 283 81 335 96 390 5 17 20 77 35
135 14 58 34 130 45 160 22 62 51 189 45 199 -6 10 -134 12 -140 3z"/>
<path d="M1649 2147 c-9 -6 -28 -43 -43 -82 -16 -38 -34 -83 -41 -100 -16 -35
-70 -189 -80 -225 -4 -14 -24 -65 -45 -115 -20 -49 -50 -124 -65 -165 -14 -41
-31 -86 -37 -100 -26 -61 -59 -150 -84 -225 -52 -158 -74 -196 -144 -245 -19
-13 -37 -27 -40 -30 -14 -15 -61 -28 -97 -26 -47 3 -93 29 -100 57 -3 10 -9
19 -14 19 -5 0 -9 6 -9 13 0 7 -6 22 -14 33 -23 30 -41 6 -24 -32 28 -63 80
-111 130 -119 21 -4 40 -10 43 -14 8 -14 128 -4 169 14 44 19 130 80 163 116
70 77 86 101 117 183 19 50 50 134 70 186 20 52 36 98 36 102 0 4 11 31 24 60
23 51 76 186 74 191 -1 5 25 83 91 272 77 221 78 235 13 235 -20 0 -46 2 -57
5 -11 3 -27 -1 -36 -8z"/>
<path d="M2067 2145 c-82 -29 -205 -167 -245 -275 -34 -91 -59 -190 -61 -242
-4 -98 54 -185 140 -208 52 -14 144 -2 193 26 140 80 261 294 273 484 5 83 4
86 -29 139 -29 48 -39 56 -88 72 -66 21 -132 23 -183 4z m179 -67 l21 -18 -44
-133 c-24 -72 -55 -172 -69 -222 -44 -156 -109 -235 -194 -235 -28 0 -80 51
-80 79 0 22 136 427 158 469 22 44 66 75 116 82 48 7 64 3 92 -22z"/>
<path d="M2572 2138 c-6 -6 -12 -18 -12 -25 0 -12 -39 -156 -79 -288 -10 -33
-23 -78 -30 -100 -6 -22 -25 -83 -41 -135 -46 -144 -42 -159 46 -167 57 -5 59
-4 71 23 6 16 16 54 22 84 5 30 25 100 44 155 19 55 45 139 58 187 22 82 25
88 61 104 20 9 44 14 52 11 8 -3 25 -29 37 -56 19 -46 24 -51 54 -51 40 0 53
14 55 60 4 74 0 92 -29 121 -33 33 -88 39 -131 14 -33 -19 -51 -19 -44 0 4 9
0 15 -10 15 -9 0 -16 8 -16 19 0 24 -4 27 -55 35 -27 5 -44 3 -53 -6z"/>
<path d="M4520 2118 c-11 -12 -26 -39 -32 -60 -6 -21 -15 -38 -21 -38 -5 0
-32 19 -60 43 -50 42 -51 42 -131 42 -108 0 -167 -26 -222 -98 -58 -78 -68
-96 -92 -172 -29 -90 -34 -145 -19 -209 16 -71 77 -177 115 -199 34 -20 126
-25 158 -9 11 5 34 16 53 26 18 9 35 15 37 13 4 -4 -10 -52 -80 -277 -25 -79
-53 -163 -63 -185 -25 -57 -98 -141 -136 -155 -17 -6 -45 -19 -61 -27 -30 -17
-98 -14 -166 7 -55 16 -113 70 -112 105 0 28 -12 44 -31 45 -17 0 4 -74 29
-104 43 -51 97 -81 178 -100 98 -24 136 -17 248 40 157 82 198 146 279 429 66
234 73 259 129 445 79 266 106 361 113 402 5 36 4 38 -31 48 -52 14 -58 13
-82 -12z m-131 -75 c35 -26 71 -62 71 -70 0 -3 -16 -57 -36 -121 -20 -64 -40
-135 -46 -157 -5 -22 -11 -47 -14 -55 -2 -8 -7 -30 -12 -49 -6 -29 -20 -42
-77 -78 -62 -39 -74 -43 -110 -37 -22 4 -50 13 -63 22 -31 20 -28 46 32 282
l48 185 49 47 c44 42 64 52 108 57 8 0 30 -11 50 -26z"/>
<path d="M5640 2104 c-154 -40 -248 -127 -283 -264 -48 -182 -1 -341 117 -402
60 -31 204 -30 273 1 96 43 175 149 212 282 26 94 26 104 -1 192 -33 109 -112
175 -238 200 -14 3 -50 -1 -80 -9z m129 -74 c45 -22 50 -39 46 -130 -6 -115
-79 -366 -119 -407 -27 -28 -102 -48 -146 -39 -71 14 -93 100 -57 226 43 157
91 297 105 314 19 21 88 54 115 55 10 1 35 -8 56 -19z"/>
<path d="M10034 2030 c1 -60 -16 -69 -56 -29 -60 60 -191 77 -290 39 -88 -34
-189 -157 -229 -278 -44 -130 -20 -259 62 -344 51 -52 53 -53 184 -48 78 2
109 15 178 72 27 22 50 38 52 36 2 -2 10 -21 17 -42 15 -45 49 -74 99 -85 44
-10 58 -4 108 42 27 24 41 46 41 62 0 32 -13 32 -42 0 -14 -14 -31 -23 -43
-20 -11 2 -24 4 -29 4 -12 1 -1 75 50 330 25 123 46 240 47 260 l2 36 -76 2
-76 2 1 -39z m-98 -31 c47 -28 78 -82 71 -122 -28 -164 -59 -329 -63 -342 -4
-8 -14 -15 -23 -15 -9 0 -21 -10 -26 -22 -13 -29 -82 -77 -120 -84 -40 -7 -96
20 -118 57 -24 43 -21 135 9 244 13 50 29 107 34 128 23 88 80 162 128 170 57
9 76 6 108 -14z"/>
<path d="M10442 2058 c-10 -13 -35 -146 -73 -388 -11 -69 -26 -155 -34 -192
-22 -108 -7 -138 70 -138 68 0 84 6 78 30 -3 10 0 49 6 87 6 37 19 127 30 198
40 256 43 268 70 293 33 29 64 37 104 25 31 -9 32 -10 33 -68 2 -61 -13 -169
-31 -225 -6 -19 -12 -46 -21 -90 -3 -14 -7 -32 -9 -40 -3 -8 -7 -33 -11 -55
-3 -22 -9 -47 -13 -55 -4 -8 -6 -21 -5 -27 1 -7 2 -24 3 -37 1 -17 10 -27 32
-35 31 -11 105 -5 114 9 3 4 14 70 25 146 32 217 50 327 56 349 4 11 25 43 48
72 49 62 111 93 151 75 30 -14 32 -46 11 -167 -8 -44 -17 -100 -21 -125 -3
-25 -8 -62 -11 -82 -3 -21 -13 -70 -24 -110 -19 -74 -28 -153 -19 -163 3 -3
29 -7 57 -10 38 -3 55 -1 66 11 16 16 18 21 20 64 3 51 18 147 32 200 7 30 18
93 23 140 6 47 13 96 15 109 10 48 -45 135 -106 167 -37 19 -98 17 -130 -4
-15 -10 -46 -35 -69 -57 -30 -27 -44 -35 -47 -25 -3 7 -19 29 -37 48 -27 30
-39 36 -88 40 -36 3 -72 -1 -103 -12 -26 -9 -49 -16 -51 -16 -2 0 -3 13 -3 29
0 25 -4 29 -37 35 -58 9 -90 7 -101 -6z"/>
<path d="M11432 2008 c-14 -61 -31 -141 -47 -233 -8 -44 -19 -100 -25 -125 -6
-25 -12 -58 -14 -75 -3 -16 -9 -50 -15 -75 -5 -25 -12 -58 -15 -75 -2 -16 -8
-50 -12 -75 -5 -25 -9 -49 -10 -55 -1 -5 -3 -12 -4 -15 -1 -3 -3 -12 -5 -20
-10 -49 -66 -339 -81 -415 -9 -49 -19 -95 -21 -102 -7 -17 35 -36 85 -37 39
-1 46 2 59 27 20 40 82 331 131 622 31 184 39 193 88 100 39 -74 68 -96 133
-103 87 -8 164 40 194 122 20 53 64 221 70 266 3 19 8 54 12 78 13 74 -29 182
-80 210 -64 34 -194 17 -262 -34 -41 -31 -44 -30 -38 6 6 36 -10 46 -81 49
l-51 2 -11 -43z m353 -29 c22 -20 35 -40 35 -56 0 -19 -28 -203 -53 -348 -20
-111 -38 -131 -113 -122 -54 6 -98 42 -121 100 -8 20 -19 37 -25 37 -5 0 -7 8
-4 18 3 9 8 33 11 52 14 91 49 227 61 241 8 8 14 21 14 27 0 13 56 57 90 71
43 17 68 12 105 -20z"/>
<path d="M12161 2034 c-15 -17 -28 -65 -37 -134 -4 -25 -10 -49 -14 -55 -15
-20 -42 -268 -38 -340 9 -135 82 -184 206 -137 78 30 153 110 138 148 -8 20
-20 17 -31 -8 -6 -13 -23 -27 -40 -32 -16 -5 -39 -13 -50 -18 -13 -6 -31 -5
-49 2 -29 11 -29 11 -22 78 17 181 44 336 73 425 20 61 10 72 -67 81 -43 4
-58 2 -69 -10z"/>
<path d="M12643 2010 c-5 -14 -10 -50 -12 -80 -1 -30 -11 -95 -22 -145 -36
-168 -49 -240 -55 -295 -3 -30 -9 -59 -13 -65 -4 -5 -6 -29 -3 -52 3 -31 9
-44 24 -49 26 -8 106 4 114 17 3 6 8 50 11 97 2 48 11 121 20 162 8 41 23 111
33 154 l17 79 79 53 c55 37 89 53 112 54 l34 0 -4 -47 c-6 -55 -31 -206 -58
-343 -10 -52 -21 -123 -23 -157 -3 -60 -2 -62 22 -67 41 -8 110 -11 116 -4 5
5 8 21 19 122 9 74 33 222 51 306 9 41 15 95 13 120 -3 56 -48 132 -80 137
-54 7 -102 2 -126 -14 -15 -10 -34 -22 -43 -28 -9 -5 -35 -25 -59 -42 -23 -18
-46 -30 -51 -28 -4 3 -1 25 7 48 20 56 12 87 -24 89 -86 4 -89 4 -99 -22z"/>
<path d="M13722 2002 c-11 -15 -23 -42 -27 -59 -3 -18 -10 -33 -13 -33 -4 0
-23 17 -42 36 -43 44 -103 74 -147 74 -80 0 -185 -66 -223 -140 -41 -78 -63
-238 -49 -345 12 -90 42 -147 93 -176 60 -34 107 -29 206 19 46 23 88 42 92
42 10 0 7 -22 -23 -170 -10 -52 -21 -113 -24 -135 -13 -87 -37 -197 -49 -219
-22 -42 -96 -134 -129 -159 -45 -34 -130 -43 -188 -21 -54 20 -84 51 -69 70 8
9 7 18 -2 33 -19 31 -44 23 -40 -12 9 -75 52 -126 121 -144 45 -12 228 3 267
22 60 28 147 125 193 214 55 106 99 305 136 616 9 72 22 164 29 205 7 41 13
127 12 190 l-1 115 -52 2 c-46 2 -54 0 -71 -25z m-125 -60 c10 -6 33 -26 51
-45 34 -35 34 -35 23 -88 -5 -30 -13 -79 -16 -109 -5 -48 -10 -84 -31 -197 -6
-31 -97 -83 -147 -83 -21 0 -55 10 -77 23 -45 25 -44 23 -16 157 9 41 16 113
16 159 0 72 4 90 25 127 14 24 38 50 53 58 29 15 89 14 119 -2z"/>
<path d="M0 8 c0 -10 4021 -10 4037 0 6 4 -900 7 -2013 7 -1113 0 -2024 -3
-2024 -7z"/>
</g>
</svg>
