<?xml version="1.0" standalone="no"?>
<!DOCTYPE svg PUBLIC "-//W3C//DTD SVG 20010904//EN"
 "http://www.w3.org/TR/2001/REC-SVG-20010904/DTD/svg10.dtd">
<svg version="1.0" xmlns="http://www.w3.org/2000/svg"
 width="900.000000pt" height="330.000000pt" viewBox="0 0 900.000000 330.000000"
 preserveAspectRatio="xMidYMid meet">
<metadata>
Created by potrace 1.10, written by Peter Selinger 2001-2011
</metadata>
<g transform="translate(0.000000,330.000000) scale(0.100000,-0.100000)"
fill="#000000" stroke="none">
<path d="M5115 2723 c-11 -3 -24 -9 -29 -14 -6 -5 -17 -9 -25 -9 -9 0 -29 -7
-45 -15 -15 -8 -38 -15 -51 -15 -12 0 -28 -7 -35 -15 -7 -8 -23 -15 -36 -15
-12 0 -29 -6 -36 -12 -7 -7 -34 -23 -60 -36 -26 -13 -50 -27 -53 -33 -4 -5
-13 -9 -22 -9 -8 0 -49 -20 -90 -45 -40 -25 -79 -45 -86 -45 -7 0 -22 -6 -33
-14 -11 -8 -38 -18 -60 -21 -21 -4 -43 -11 -49 -15 -26 -19 -120 -40 -178 -40
-121 0 -184 58 -180 167 1 29 9 63 17 75 9 12 16 35 16 50 0 38 -30 37 -103
-2 -31 -16 -68 -30 -81 -30 -14 0 -27 -4 -30 -9 -3 -5 -27 -12 -53 -16 -27 -4
-53 -11 -59 -16 -6 -5 -37 -13 -70 -18 -32 -5 -79 -14 -104 -20 -91 -23 -137
-32 -215 -41 -44 -5 -105 -14 -135 -19 -30 -5 -86 -10 -123 -10 -38 -1 -76 -5
-85 -10 -10 -5 -89 -12 -177 -16 -88 -4 -164 -9 -169 -12 -7 -5 -263 -28 -406
-38 -115 -7 -246 -23 -273 -34 -16 -6 -45 -11 -65 -11 -39 0 -176 -31 -208
-47 -10 -5 -55 -18 -99 -28 -44 -11 -89 -25 -100 -32 -11 -7 -29 -13 -42 -13
-12 0 -24 -4 -28 -9 -3 -5 -18 -12 -34 -16 -16 -3 -35 -13 -42 -21 -6 -8 -19
-14 -28 -14 -21 -1 -110 -58 -184 -118 -63 -51 -199 -203 -239 -268 -15 -22
-32 -47 -40 -55 -25 -27 -58 -78 -58 -90 0 -6 -12 -28 -27 -48 -36 -46 -50
-70 -64 -101 -6 -14 -21 -39 -35 -57 -13 -17 -24 -35 -24 -40 0 -5 -14 -23
-30 -41 -29 -32 -38 -61 -23 -75 3 -4 12 -2 19 4 7 6 33 11 57 11 24 0 49 3
55 7 7 4 42 66 79 138 129 249 148 283 160 283 7 0 23 -11 37 -25 34 -34 61
-31 97 7 37 41 37 70 -2 118 -21 26 -28 43 -22 52 13 22 161 148 212 180 59
38 222 118 239 118 10 0 27 7 38 15 10 8 29 15 42 15 13 0 33 5 44 11 22 12
113 35 177 46 26 4 38 1 48 -12 12 -18 14 -18 49 1 20 10 39 25 41 32 4 10 71
12 322 10 286 -2 318 -1 341 15 16 11 44 17 81 17 38 0 61 5 69 15 9 10 31 15
72 15 33 0 82 7 109 16 39 13 72 15 139 11 50 -3 92 -1 97 4 6 6 24 3 49 -7
34 -15 54 -15 164 -5 68 6 129 16 134 21 6 6 18 10 28 10 52 0 313 114 337
147 8 11 58 43 67 43 4 0 4 -34 0 -76 -5 -67 -3 -81 15 -111 12 -19 40 -46 63
-61 35 -22 55 -27 132 -30 67 -3 100 0 125 11 19 8 70 25 114 37 44 13 107 38
140 57 33 18 72 38 88 44 15 6 27 15 27 20 0 5 9 9 19 9 11 0 26 6 33 14 8 7
24 17 36 20 12 4 22 12 22 17 0 5 8 9 19 9 10 0 24 7 31 15 7 8 19 15 28 15 8
0 43 13 76 29 55 26 122 42 242 58 25 3 60 -2 88 -11 26 -9 59 -16 75 -16 16
0 34 -7 41 -15 7 -8 19 -15 27 -15 8 0 20 -6 27 -12 7 -7 26 -25 42 -39 79
-71 117 -155 96 -213 -7 -18 -12 -39 -12 -47 0 -22 -99 -129 -119 -129 -10 0
-32 15 -48 33 -66 69 -64 68 -218 65 -130 -3 -144 -5 -197 -31 -127 -62 -186
-120 -254 -246 -27 -50 -76 -102 -120 -127 -15 -9 -19 -23 -20 -75 0 -35 -4
-84 -8 -109 -10 -61 6 -83 65 -84 36 -1 44 -5 47 -21 4 -23 32 -84 47 -101 6
-7 21 -27 35 -45 42 -55 78 -86 122 -107 118 -55 123 -57 199 -57 42 0 82 5
90 11 8 6 30 14 49 18 48 9 174 140 219 228 37 72 68 91 110 69 16 -9 22 -8
31 8 19 37 -7 71 -86 111 -41 21 -49 30 -52 57 -2 17 -9 37 -17 43 -20 16 -55
-60 -55 -119 0 -36 -7 -54 -30 -81 -28 -35 -29 -35 -109 -35 -109 0 -127 17
-123 116 2 27 11 45 39 72 20 20 44 37 52 37 21 0 89 38 135 75 49 39 76 84
76 127 0 19 5 39 12 46 9 9 9 15 0 24 -20 20 -15 58 8 58 30 0 92 35 110 60 8
13 20 28 26 34 27 29 54 107 54 158 0 64 -25 114 -90 185 -60 65 -95 87 -195
129 -39 16 -224 27 -270 17z m-1235 -173 c0 -5 -6 -10 -14 -10 -8 0 -18 5 -21
10 -3 6 3 10 14 10 12 0 21 -4 21 -10z m-60 -25 c0 -10 -10 -15 -28 -15 -16 0
-37 -7 -48 -15 -10 -8 -32 -15 -49 -15 -16 0 -41 -7 -55 -15 -14 -8 -35 -14
-48 -15 -13 0 -36 -7 -52 -15 -40 -21 -330 -29 -330 -10 0 8 32 16 98 23 130
15 238 35 352 65 113 30 160 33 160 12z m-870 -125 c0 -5 -6 -10 -14 -10 -8 0
-18 5 -21 10 -3 6 3 10 14 10 12 0 21 -4 21 -10z m-193 -16 c40 -11 14 -24
-46 -24 -35 0 -65 -6 -77 -15 -14 -11 -52 -14 -161 -15 -78 0 -144 4 -148 9
-8 15 19 19 164 26 73 4 145 11 160 15 32 10 79 12 108 4z m-477 -44 c0 -5 -7
-10 -15 -10 -8 0 -15 5 -15 10 0 6 7 10 15 10 8 0 15 -4 15 -10z m3092 -132
c31 -22 35 -45 13 -74 -23 -30 -19 -63 10 -74 27 -10 30 -25 16 -63 -13 -34
-88 -107 -110 -107 -10 0 -24 -7 -31 -15 -7 -8 -20 -15 -29 -15 -25 0 -75 -40
-113 -91 -13 -17 -18 -42 -18 -91 0 -60 3 -71 28 -97 15 -16 55 -39 90 -51 34
-12 65 -27 68 -31 9 -15 21 -10 27 11 3 11 17 24 31 30 15 5 42 27 61 47 28
30 35 46 35 79 0 22 3 43 6 47 4 3 21 -4 38 -17 17 -13 39 -26 49 -27 28 -6
25 -24 -5 -27 -27 -3 -88 -64 -88 -88 0 -6 -9 -19 -20 -29 -11 -10 -20 -23
-20 -29 0 -7 -23 -36 -51 -65 -47 -50 -51 -52 -64 -34 -11 14 -16 15 -26 6
-10 -10 -9 -16 1 -28 12 -14 11 -18 -1 -26 -21 -13 -40 -11 -59 6 -23 21 -49
10 -42 -17 4 -19 2 -20 -34 -15 -80 11 -134 27 -171 51 -133 85 -229 300 -193
436 6 25 15 61 18 80 8 38 76 150 92 150 6 0 10 8 10 18 0 9 7 26 16 37 12 16
18 18 34 7 26 -16 30 -15 30 3 0 8 -4 15 -10 15 -41 0 51 68 119 88 112 33
248 33 293 0z m-670 -455 c6 -27 -2 -55 -15 -50 -7 2 -14 11 -15 21 -8 37 21
65 30 29z"/>
<path d="M5204 2146 c-11 -29 1 -51 28 -54 33 -4 57 30 37 54 -15 18 -58 18
-65 0z"/>
<path d="M5027 2079 c-9 -6 -17 -16 -17 -24 0 -8 -9 -19 -20 -25 -26 -14 -25
-23 2 -35 12 -6 25 -22 29 -37 7 -27 9 -30 57 -87 22 -26 33 -32 50 -27 31 10
28 22 -17 67 -38 39 -51 75 -51 141 0 32 -9 40 -33 27z"/>
<path d="M4897 1963 c-14 -13 -6 -23 18 -23 16 0 25 6 25 15 0 15 -31 21 -43
8z"/>
<path d="M4928 1913 c-25 -6 -22 -30 4 -37 27 -6 43 7 35 28 -7 16 -9 17 -39
9z"/>
<path d="M4822 1864 c4 -21 22 -23 26 -1 2 10 -3 17 -13 17 -10 0 -15 -6 -13
-16z"/>
<path d="M4972 1833 c2 -12 12 -18 28 -18 16 0 26 6 28 18 3 13 -3 17 -28 17
-25 0 -31 -4 -28 -17z"/>
<path d="M4907 1823 c-12 -12 -7 -31 10 -37 21 -8 35 6 27 27 -6 17 -25 22
-37 10z"/>
<path d="M4946 1773 c-3 -3 -6 -15 -6 -25 0 -14 6 -19 22 -16 12 2 23 8 25 15
5 13 -31 36 -41 26z"/>
<path d="M4822 1743 c2 -10 10 -18 18 -18 8 0 16 8 18 18 2 12 -3 17 -18 17
-15 0 -20 -5 -18 -17z"/>
<path d="M4874 1695 c-7 -18 3 -35 21 -35 15 0 24 19 18 38 -6 17 -32 15 -39
-3z"/>
<path d="M4947 1683 c-15 -14 -7 -43 12 -43 24 0 33 13 25 34 -6 16 -25 21
-37 9z"/>
<path d="M4933 1604 c-8 -22 18 -37 36 -20 7 8 10 19 7 25 -10 16 -36 13 -43
-5z"/>
<path d="M4877 1582 c-24 -5 -16 -26 11 -30 14 -2 22 2 22 12 0 18 -10 24 -33
18z"/>
<path d="M4971 1536 c-17 -20 -6 -49 16 -44 22 4 26 20 10 42 -12 16 -14 16
-26 2z"/>
<path d="M5067 1533 c-4 -3 -7 -15 -7 -25 0 -12 7 -18 24 -18 33 0 44 20 21
37 -21 15 -29 16 -38 6z"/>
<path d="M5181 1466 c-16 -19 -7 -46 14 -46 22 0 30 29 13 46 -13 13 -16 13
-27 0z"/>
<path d="M5024 1455 c-4 -9 -2 -21 4 -27 15 -15 44 -1 40 19 -4 23 -36 29 -44
8z"/>
<path d="M4925 1450 c-8 -12 20 -24 35 -15 6 3 8 11 5 16 -8 12 -32 12 -40 -1z"/>
<path d="M5085 1430 c-11 -17 5 -51 23 -48 23 4 23 52 0 56 -9 2 -19 -2 -23
-8z"/>
<path d="M1840 2225 c-7 -8 -17 -15 -23 -15 -6 0 -92 -40 -192 -89 -99 -49
-225 -110 -279 -136 -55 -25 -118 -59 -140 -74 -23 -15 -49 -30 -58 -34 -27
-10 -22 -30 5 -22 12 4 26 11 31 16 6 5 17 9 25 9 9 0 43 14 76 30 33 16 65
30 72 30 6 0 26 8 45 17 18 9 47 23 63 32 17 8 37 18 45 22 8 5 40 20 70 33
30 14 91 46 135 71 44 25 91 51 105 57 14 7 27 15 30 19 3 3 15 11 28 18 12 7
20 16 17 22 -9 14 -41 11 -55 -6z"/>
<path d="M110 2165 c0 -8 9 -15 20 -15 11 0 20 7 20 15 0 8 -9 15 -20 15 -11
0 -20 -7 -20 -15z"/>
<path d="M4010 2060 c-15 -3 -27 -16 -32 -30 -16 -62 -28 -123 -29 -153 0 -17
-8 -54 -17 -82 -15 -44 -20 -50 -43 -47 -30 3 -64 -29 -55 -53 3 -9 20 -21 37
-27 29 -10 30 -13 24 -47 -3 -20 -13 -55 -21 -79 -30 -89 -5 -186 60 -236 41
-31 78 -33 132 -7 48 24 71 56 53 77 -18 22 -45 17 -57 -11 -9 -20 -19 -25
-46 -25 -18 0 -39 7 -47 16 -21 25 -24 125 -5 162 9 17 16 51 16 76 0 40 3 47
30 61 51 26 64 75 19 75 -24 0 -25 31 -5 104 21 77 46 189 46 207 0 20 -25 28
-60 19z"/>
<path d="M4370 2050 c-11 -11 -21 -30 -24 -42 -19 -100 -36 -198 -38 -223 -2
-22 -9 -31 -25 -33 -24 -3 -53 -37 -53 -59 0 -8 12 -18 26 -24 26 -9 26 -11
18 -62 -4 -28 -8 -88 -8 -132 0 -70 3 -85 26 -118 36 -51 67 -74 111 -82 31
-6 45 -3 76 18 41 27 60 62 43 79 -6 6 -23 0 -47 -16 -49 -33 -70 -33 -106 4
-28 27 -29 33 -23 82 4 29 11 61 15 70 5 9 9 44 9 78 0 49 3 62 18 66 53 17
68 56 32 89 -24 22 -25 53 -5 102 8 19 15 54 15 77 0 22 7 54 15 70 19 35 12
62 -18 70 -32 9 -35 8 -57 -14z"/>
<path d="M2591 2028 c-7 -18 -19 -62 -26 -98 -7 -36 -21 -92 -30 -125 -10 -33
-21 -82 -24 -110 -5 -45 -9 -50 -33 -53 -16 -2 -28 2 -28 8 0 21 -44 49 -77
50 -84 1 -155 -91 -173 -224 -12 -84 -8 -97 47 -160 47 -53 91 -48 160 16 l31
30 14 -22 c13 -22 77 -60 100 -60 22 1 58 37 58 59 0 24 -12 26 -39 9 -10 -6
-26 -8 -36 -4 -14 5 -16 13 -11 39 4 17 11 55 15 82 5 28 14 66 21 85 35 96
40 113 40 143 0 18 7 42 15 53 8 10 15 36 15 56 0 21 6 52 14 70 30 74 55 160
49 173 -3 10 -20 15 -47 15 -38 0 -43 -3 -55 -32z m-156 -396 c6 -4 17 -21 26
-38 13 -25 14 -35 4 -55 -7 -13 -20 -53 -29 -89 -15 -53 -23 -69 -48 -83 -37
-21 -81 -22 -99 -1 -10 12 -10 22 -1 48 7 18 12 45 12 60 0 14 7 43 15 63 8
19 15 42 15 50 0 35 75 67 105 45z"/>
<path d="M3254 2039 c-17 -19 -30 -69 -53 -204 -5 -27 -19 -86 -31 -130 -12
-44 -26 -96 -30 -115 -5 -19 -13 -53 -19 -75 -6 -22 -11 -67 -11 -100 0 -60 1
-60 49 -101 43 -36 54 -40 85 -35 45 8 86 44 86 76 0 31 -22 33 -50 5 -11 -11
-33 -20 -50 -20 -23 0 -31 5 -36 25 -6 25 24 181 51 265 8 25 15 57 15 71 0
15 7 46 15 69 8 23 15 52 15 64 0 11 12 59 27 105 29 91 25 114 -19 119 -15 2
-31 -5 -44 -19z"/>
<path d="M1539 1913 c-9 -2 -21 -16 -28 -30 -10 -21 -9 -30 4 -50 10 -15 22
-22 32 -19 8 3 18 6 22 6 18 0 29 47 18 70 -13 25 -23 30 -48 23z"/>
<path d="M7102 1892 c-8 -6 -12 -23 -10 -43 4 -40 34 -51 62 -23 26 25 17 68
-14 72 -14 1 -31 -2 -38 -6z"/>
<path d="M3575 1850 c-8 -16 -15 -43 -15 -60 0 -28 3 -31 27 -28 21 2 29 10
36 37 18 71 -18 110 -48 51z"/>
<path d="M3680 1844 c-15 -38 -12 -84 5 -91 36 -13 81 71 55 102 -19 23 -49
18 -60 -11z"/>
<path d="M1451 1665 c-11 -20 -21 -44 -21 -53 0 -9 -6 -29 -14 -43 -7 -14 -16
-43 -20 -63 -4 -21 -19 -65 -33 -99 -14 -34 -31 -79 -39 -99 -35 -93 -47 -125
-60 -156 -8 -18 -14 -41 -14 -52 0 -26 -54 -86 -84 -94 -34 -9 -74 9 -88 39
-10 23 -45 34 -61 19 -12 -12 17 -66 50 -91 82 -63 208 -16 278 102 13 22 32
69 44 105 26 82 43 129 59 157 7 12 12 29 12 39 0 21 27 118 46 162 8 18 14
41 14 51 0 10 7 24 16 31 9 8 14 25 12 44 -3 28 -7 31 -39 34 -33 3 -39 -1
-58 -33z"/>
<path d="M1670 1682 c-81 -54 -154 -246 -128 -332 21 -66 103 -90 172 -49 40
23 58 48 103 142 27 55 33 80 33 131 0 59 -3 67 -31 95 -26 26 -38 31 -77 30
-27 0 -58 -7 -72 -17z m116 -53 c3 -5 -1 -28 -9 -52 -8 -23 -22 -69 -32 -102
-25 -87 -43 -121 -71 -134 -35 -15 -64 1 -64 37 0 30 66 230 81 249 18 21 82
22 95 2z"/>
<path d="M1958 1683 c-9 -10 -18 -36 -21 -58 -10 -76 -35 -177 -46 -188 -6 -6
-11 -19 -11 -29 0 -9 -8 -33 -17 -53 -15 -31 -15 -37 -2 -50 7 -7 26 -17 41
-20 34 -9 37 -2 72 150 33 142 36 149 65 153 15 2 26 -5 39 -27 19 -35 33 -38
56 -15 45 44 -22 144 -74 112 -19 -11 -24 -10 -45 15 -28 32 -36 33 -57 10z"/>
<path d="M2988 1675 c-11 -24 -58 -37 -58 -16 0 15 -56 23 -101 16 -39 -7
-109 -63 -109 -88 0 -6 -8 -19 -17 -30 -27 -28 -25 -161 1 -202 43 -66 99 -93
126 -60 14 17 36 20 45 5 3 -5 -1 -24 -9 -42 -8 -18 -20 -53 -26 -77 -6 -24
-15 -51 -19 -60 -5 -9 -16 -33 -27 -54 -11 -25 -32 -46 -56 -58 -45 -23 -60
-24 -114 -3 -33 13 -43 22 -48 46 -9 43 -41 35 -41 -11 0 -27 8 -40 38 -64 32
-26 49 -32 103 -35 55 -4 70 -1 94 17 16 11 33 21 38 21 4 0 25 18 47 40 40
41 62 86 74 155 4 22 13 50 19 62 7 12 12 39 12 60 0 22 7 48 15 59 8 10 15
31 15 45 0 15 7 43 15 62 8 20 15 47 15 59 0 13 6 35 14 50 8 14 17 45 21 67
6 38 5 42 -20 51 -35 13 -34 14 -47 -15z m-62 -56 c37 -22 42 -43 20 -74 -12
-18 -28 -71 -43 -146 -8 -43 -83 -74 -121 -50 -16 10 -7 106 14 158 8 18 14
43 14 55 0 22 53 77 74 78 5 0 24 -9 42 -21z"/>
<path d="M3585 1676 c-91 -25 -132 -70 -157 -167 -16 -67 -16 -70 2 -111 29
-63 50 -85 97 -101 113 -38 243 76 243 213 0 71 -24 123 -69 148 -51 28 -71
31 -116 18z m72 -58 c28 -26 32 -99 8 -144 -8 -16 -15 -41 -15 -55 0 -15 -10
-38 -21 -53 -18 -23 -28 -27 -63 -24 l-41 3 1 82 c1 103 24 167 68 194 38 23
35 23 63 -3z"/>
<path d="M5773 1669 c-66 -20 -164 -156 -162 -226 1 -57 34 -116 81 -146 34
-21 111 -23 128 -2 7 8 17 15 23 15 5 0 15 8 22 17 12 16 16 15 46 -15 38 -37
60 -40 100 -11 41 29 38 49 -7 49 -33 0 -36 2 -30 23 4 12 10 49 13 82 3 33
10 65 15 72 15 19 27 126 16 141 -16 19 -52 14 -83 -10 -25 -20 -29 -20 -40
-5 -15 20 -80 29 -122 16z m126 -58 c32 -26 33 -30 23 -62 -6 -19 -13 -59 -17
-89 -9 -76 -50 -120 -112 -120 -59 0 -66 16 -52 122 12 90 42 152 82 168 33
13 39 12 76 -19z"/>
<path d="M6153 1673 c-8 -3 -13 -23 -13 -51 0 -26 -7 -69 -15 -96 -8 -27 -15
-77 -15 -111 0 -33 -5 -66 -12 -73 -9 -9 -9 -18 0 -37 10 -22 18 -26 50 -23
l37 3 8 70 c27 249 30 258 81 253 26 -3 32 -8 34 -33 2 -16 -1 -45 -6 -65 -21
-76 -42 -176 -42 -201 0 -30 27 -43 67 -33 18 5 23 13 23 38 0 17 7 63 15 101
8 39 15 86 15 105 1 44 35 86 77 95 28 6 33 3 38 -17 3 -13 -1 -43 -10 -67 -8
-24 -15 -63 -15 -88 0 -24 -7 -60 -15 -80 -8 -19 -15 -46 -15 -59 0 -22 4 -24
45 -24 49 0 44 -8 60 110 28 216 28 223 -23 259 -40 28 -76 27 -100 -4 -23
-29 -38 -31 -64 -8 -13 12 -34 17 -65 15 -27 -1 -54 4 -66 13 -21 15 -50 18
-74 8z"/>
<path d="M7058 1669 c-13 -7 -18 -23 -18 -52 0 -22 -7 -85 -16 -139 -18 -108
-13 -136 31 -178 22 -21 27 -22 56 -10 45 19 89 59 89 81 0 23 -23 25 -40 4
-7 -9 -23 -15 -34 -13 -18 3 -21 11 -24 58 -2 31 3 71 12 95 8 22 18 65 21 96
7 53 6 57 -17 62 -31 9 -40 8 -60 -4z"/>
<path d="M6676 1658 c-2 -7 -11 -60 -20 -118 -9 -58 -23 -141 -32 -185 -8 -44
-24 -125 -35 -180 -23 -118 -35 -172 -44 -201 -5 -17 -2 -23 19 -28 20 -5 74
0 76 8 1 0 8 35 16 76 23 117 34 180 40 240 8 82 13 100 29 100 8 0 15 -6 15
-13 0 -20 64 -77 85 -77 20 1 46 19 77 56 9 10 24 55 34 99 37 177 17 235 -82
235 -33 0 -54 -5 -57 -12 -3 -10 -11 -10 -39 0 -19 6 -44 12 -57 12 -12 0 -23
-6 -25 -12z m184 -38 c23 -20 23 -24 12 -66 -7 -24 -12 -68 -12 -97 0 -96 -38
-129 -95 -82 -29 24 -30 27 -27 102 3 80 15 110 56 145 27 23 38 22 66 -2z"/>
<path d="M7305 1658 c-4 -13 -6 -36 -23 -203 -5 -44 -14 -90 -20 -102 -19 -35
-15 -63 13 -73 48 -18 78 7 69 57 -6 34 22 200 38 220 15 18 88 54 99 48 13
-8 11 -52 -2 -77 -12 -22 -30 -142 -33 -208 -1 -34 0 -35 39 -35 l40 0 7 60
c32 272 32 285 -8 304 -36 16 -47 14 -89 -15 -39 -26 -50 -24 -57 11 -4 24
-65 35 -73 13z"/>
<path d="M7700 1648 c-66 -34 -82 -70 -88 -192 l-4 -101 34 -37 c20 -22 44
-38 57 -38 23 0 68 25 88 48 16 19 43 8 43 -17 0 -11 -6 -40 -14 -63 -8 -24
-18 -68 -22 -98 -10 -80 -64 -157 -122 -175 -30 -9 -82 13 -82 34 0 26 -20 42
-40 31 -24 -13 -15 -57 18 -93 22 -23 34 -27 78 -27 92 0 149 34 206 123 32
49 43 87 58 192 24 162 51 364 53 395 2 34 1 35 -40 38 -38 3 -43 1 -49 -22
-8 -32 -9 -32 -63 -1 -53 30 -56 31 -111 3z m144 -60 c10 -39 6 -131 -7 -170
-18 -51 -56 -80 -96 -72 -17 4 -34 11 -39 18 -5 6 -6 54 -3 107 7 119 20 139
91 139 41 0 49 -3 54 -22z"/>
<path d="M4190 1265 c0 -8 7 -15 15 -15 8 0 15 7 15 15 0 8 -7 15 -15 15 -8 0
-15 -7 -15 -15z"/>
<path d="M675 800 c-62 -4 -80 -8 -80 -20 0 -12 24 -16 145 -18 227 -5 529 -7
600 -4 142 6 139 6 247 -8 56 -7 90 -7 109 0 19 7 36 7 60 -2 25 -9 39 -9 58
0 14 6 28 8 30 3 7 -11 6115 -11 6122 0 3 5 2 18 -1 29 -6 19 -35 19 -3378 20
-1855 0 -3475 2 -3602 3 -126 1 -266 0 -310 -3z"/>
<path d="M633 704 c-10 -4 -13 -44 -13 -149 0 -155 3 -162 57 -149 23 6 24 10
21 63 l-3 56 63 3 64 3 -2 -48 c-1 -26 -1 -53 -1 -60 1 -15 33 -25 55 -17 14
5 16 26 16 150 l0 144 -24 6 c-38 9 -46 -2 -46 -62 l0 -55 -57 3 -58 3 -5 55
c-5 50 -7 55 -30 57 -14 1 -31 -1 -37 -3z"/>
<path d="M1344 695 c-7 -16 11 -48 50 -90 33 -35 60 -114 45 -131 -25 -30 17
-78 59 -67 20 5 22 12 22 65 0 52 4 65 30 98 17 21 30 41 30 46 0 4 9 18 21
30 31 33 18 66 -24 62 -25 -2 -35 -11 -52 -46 -12 -24 -29 -50 -38 -59 -14
-14 -17 -11 -38 36 -12 29 -30 56 -40 61 -26 15 -59 12 -65 -5z"/>
<path d="M4215 692 c-38 -10 -55 -21 -68 -44 -23 -40 -22 -50 13 -83 22 -21
44 -30 86 -36 66 -9 95 -30 78 -57 -17 -27 -65 -26 -107 3 -43 29 -87 33 -87
9 0 -9 15 -31 34 -50 32 -32 39 -34 98 -34 51 0 70 5 99 25 72 48 55 123 -31
137 -24 4 -48 12 -54 18 -5 5 -20 10 -33 10 -28 0 -40 24 -23 45 19 23 64 18
94 -10 36 -33 76 -34 76 -1 0 28 -42 66 -72 66 -11 0 -27 4 -36 8 -10 5 -38 3
-67 -6z"/>
<path d="M2039 683 c-19 -22 8 -43 57 -43 28 0 44 -5 45 -12 1 -7 2 -60 3
-118 l1 -105 33 -3 c37 -4 35 -13 32 131 l-2 107 51 0 c54 0 74 17 52 44 -16
19 -256 19 -272 -1z"/>
<path d="M2725 692 c-3 -3 -5 -16 -5 -29 0 -21 4 -23 51 -23 l51 0 -3 -111
c-4 -123 2 -138 54 -125 l27 6 0 115 0 115 45 0 c48 0 69 20 46 43 -11 11
-255 20 -266 9z"/>
<path d="M3525 691 l-80 -6 0 -140 0 -140 116 -3 c92 -2 119 0 128 12 10 11
10 20 1 37 -11 20 -17 21 -82 16 -82 -7 -98 -2 -98 28 0 33 13 38 94 39 70 1
71 1 74 29 l3 27 -84 0 c-87 0 -106 9 -87 40 6 10 30 13 89 11 66 -2 82 1 87
14 10 24 -15 45 -50 43 -17 -1 -67 -4 -111 -7z"/>
<path d="M4940 691 l-85 -6 0 -140 0 -140 123 -3 c107 -2 123 0 129 14 14 36
-10 49 -93 49 l-79 0 0 30 0 30 75 3 c77 3 91 11 82 44 -4 18 -11 19 -71 13
-50 -5 -71 -3 -86 8 -19 15 -19 16 -2 35 16 17 27 20 72 15 57 -6 105 2 105
16 0 19 -32 41 -58 39 -15 -1 -65 -4 -112 -7z"/>
<path d="M5575 690 c-8 -13 -13 -268 -5 -281 4 -6 20 -9 36 -7 l29 3 -4 86
c-2 49 1 89 7 93 9 5 51 -54 98 -139 23 -41 40 -51 77 -41 21 5 22 10 22 138
0 73 -4 139 -8 146 -5 6 -17 12 -28 12 -28 0 -40 -41 -34 -112 5 -53 4 -60
-10 -54 -9 3 -18 6 -21 6 -2 0 -22 33 -44 74 -27 48 -48 76 -63 80 -31 8 -45
7 -52 -4z"/>
<path d="M6273 681 c-22 -22 3 -41 53 -41 28 0 44 -5 45 -12 1 -7 2 -60 3
-118 l1 -105 35 0 35 0 -4 118 -3 117 51 0 c54 0 76 19 52 43 -18 18 -250 16
-268 -2z"/>
<path d="M7007 688 c-16 -9 -18 -270 -3 -280 6 -4 62 -8 124 -8 95 0 114 3
119 16 3 9 2 24 -4 33 -9 13 -25 15 -90 12 -76 -3 -80 -2 -86 19 -11 43 0 50
78 50 79 0 92 7 74 41 -10 19 -17 21 -58 15 -25 -3 -55 -7 -66 -8 -17 -3 -20
3 -20 32 l0 35 79 0 c79 0 94 7 76 35 -7 12 -31 15 -110 15 -56 0 -107 -3
-113 -7z"/>
<path d="M7704 688 c-4 -5 -8 -241 -5 -276 1 -9 12 -12 34 -10 31 3 32 5 33
48 1 71 0 70 53 70 54 0 65 -13 60 -68 -5 -39 7 -52 47 -52 l35 0 -7 53 c-3
28 -12 62 -20 74 -11 18 -11 23 2 34 33 27 36 48 14 84 -12 19 -31 37 -43 40
-37 7 -199 10 -203 3z m173 -65 c17 -22 16 -28 -3 -47 -18 -19 -85 -21 -102
-4 -18 18 -15 55 6 68 23 14 84 4 99 -17z"/>
<path d="M6730 334 c-17 -9 -39 -12 -65 -7 -22 3 -130 5 -240 4 -110 -1 -206
-1 -212 -1 -7 1 -30 1 -50 1 -21 0 -63 0 -93 1 -30 0 -1274 1 -2765 2 l-2710
1 -3 -23 c-2 -13 2 -22 10 -22 7 0 1660 0 3673 -1 2013 0 3668 0 3678 0 9 1
17 8 17 16 0 10 -11 15 -37 16 -21 1 -103 3 -183 5 -168 6 -284 6 -415 3 -31
-1 -383 0 -442 1 -18 1 -39 1 -45 0 -24 -1 -74 7 -84 12 -5 4 -20 0 -34 -8z"/>
</g>
</svg>
